# xmcd
#
# Track frame offsets:
#	150
#	17856
#	37625
#	53552
#	63170
#	79659
#	92892
#	106732
#	117918
#	138510
#	158628
#	170039
#
# Disc length: 2356 seconds
#
# Revision: 0
# Processed by: cddbd v1.5.2PL0 Copyright (c) Steve Scherf et al.
# Submitted via: EasyCDDAExtractor 10.0.1.1
#
DISCID=8c09320c
DTITLE=Renaud - Rouge sang [CD 1)
DYEAR=2006
DGENRE=Chanson française
TTITLE0=Les bobos
TTITLE1=Dans la jungle
TTITLE2=Arreter la clope
TTITLE3=RS et RS
TTITLE4=Ma blonde
TTITLE5=Rouge sang
TTITLE6=Elle est facho
TTITLE7=Les 5 sens
TTITLE8=J'ai retrouvé mon flingue
TTITLE9=Nos vieux
TTITLE10=Filles de joie
TTITLE11=Danser à Rome
EXTD=
EXTT0=
EXTT1=
EXTT2=
EXTT3=
EXTT4=
EXTT5=
EXTT6=
EXTT7=
EXTT8=
EXTT9=
EXTT10=
EXTT11=
PLAYORDER=
